<svg width="102" height="18" viewBox="0 0 102 18" fill="none" xmlns="http://www.w3.org/2000/svg">
<path d="M4.35332 15.524C4.21313 15.42 4.12721 15.2798 4.09555 15.1034C4.06842 14.927 4.09781 14.7168 4.18374 14.4726L5.60148 10.2532L1.97911 7.64839C1.76656 7.49915 1.61959 7.34539 1.53818 7.18711C1.45678 7.02883 1.44322 6.86603 1.49748 6.6987C1.55175 6.5359 1.65803 6.41379 1.81631 6.33239C1.97459 6.25099 2.18488 6.21255 2.44717 6.21707L6.89034 6.24421L8.24025 2.00454C8.32165 1.75581 8.42341 1.56814 8.54551 1.44151C8.67213 1.31489 8.82137 1.25157 8.99322 1.25157C9.16959 1.25157 9.31882 1.31489 9.44093 1.44151C9.56755 1.56814 9.67156 1.75581 9.75296 2.00454L11.1029 6.24421L15.546 6.21707C15.8083 6.21255 16.0186 6.25099 16.1769 6.33239C16.3352 6.41379 16.4415 6.5359 16.4957 6.6987C16.55 6.86603 16.5364 7.02883 16.455 7.18711C16.3736 7.34539 16.2267 7.49915 16.0141 7.64839L12.3917 10.2532L13.8095 14.4726C13.8954 14.7168 13.9225 14.927 13.8909 15.1034C13.8637 15.2798 13.7801 15.42 13.6399 15.524C13.4997 15.6325 13.3414 15.6687 13.165 15.6325C12.9887 15.6009 12.7965 15.5104 12.5885 15.3612L8.99322 12.7224L5.40476 15.3612C5.19674 15.5104 5.00454 15.6009 4.82817 15.6325C4.6518 15.6687 4.49352 15.6325 4.35332 15.524Z" fill="#FFA580"/>
<path d="M25.1319 15.524C24.9917 15.42 24.9058 15.2798 24.8741 15.1034C24.847 14.927 24.8764 14.7168 24.9623 14.4726L26.38 10.2532L22.7577 7.64839C22.5451 7.49915 22.3982 7.34539 22.3167 7.18711C22.2353 7.02883 22.2218 6.86603 22.276 6.6987C22.3303 6.5359 22.4366 6.41379 22.5949 6.33239C22.7532 6.25099 22.9634 6.21255 23.2257 6.21707L27.6689 6.24421L29.0188 2.00454C29.1002 1.75581 29.202 1.56814 29.3241 1.44151C29.4507 1.31489 29.5999 1.25157 29.7718 1.25157C29.9482 1.25157 30.0974 1.31489 30.2195 1.44151C30.3461 1.56814 30.4501 1.75581 30.5315 2.00454L31.8814 6.24421L36.3246 6.21707C36.5869 6.21255 36.7972 6.25099 36.9555 6.33239C37.1138 6.41379 37.22 6.5359 37.2743 6.6987C37.3286 6.86603 37.315 7.02883 37.2336 7.18711C37.1522 7.34539 37.0052 7.49915 36.7927 7.64839L33.1703 10.2532L34.588 14.4726C34.674 14.7168 34.7011 14.927 34.6694 15.1034C34.6423 15.2798 34.5586 15.42 34.4185 15.524C34.2783 15.6325 34.12 15.6687 33.9436 15.6325C33.7672 15.6009 33.575 15.5104 33.367 15.3612L29.7718 12.7224L26.1833 15.3612C25.9753 15.5104 25.7831 15.6009 25.6067 15.6325C25.4304 15.6687 25.2721 15.6325 25.1319 15.524Z" fill="#FFA580"/>
<path d="M45.9105 15.524C45.7703 15.42 45.6843 15.2798 45.6527 15.1034C45.6255 14.927 45.6549 14.7168 45.7409 14.4726L47.1586 10.2532L43.5362 7.64839C43.3237 7.49915 43.1767 7.34539 43.0953 7.18711C43.0139 7.02883 43.0003 6.86603 43.0546 6.6987C43.1089 6.5359 43.2152 6.41379 43.3734 6.33239C43.5317 6.25099 43.742 6.21255 44.0043 6.21707L48.4475 6.24421L49.7974 2.00454C49.8788 1.75581 49.9805 1.56814 50.1026 1.44151C50.2293 1.31489 50.3785 1.25157 50.5503 1.25157C50.7267 1.25157 50.876 1.31489 50.9981 1.44151C51.1247 1.56814 51.2287 1.75581 51.3101 2.00454L52.66 6.24421L57.1032 6.21707C57.3655 6.21255 57.5758 6.25099 57.734 6.33239C57.8923 6.41379 57.9986 6.5359 58.0529 6.6987C58.1071 6.86603 58.0936 7.02883 58.0122 7.18711C57.9308 7.34539 57.7838 7.49915 57.5712 7.64839L53.9489 10.2532L55.3666 14.4726C55.4525 14.7168 55.4797 14.927 55.448 15.1034C55.4209 15.2798 55.3372 15.42 55.197 15.524C55.0568 15.6325 54.8985 15.6687 54.7222 15.6325C54.5458 15.6009 54.3536 15.5104 54.1456 15.3612L50.5503 12.7224L46.9619 15.3612C46.7539 15.5104 46.5617 15.6009 46.3853 15.6325C46.2089 15.6687 46.0506 15.6325 45.9105 15.524Z" fill="#FFA580"/>
<path d="M66.6888 15.524C66.5486 15.42 66.4627 15.2798 66.431 15.1034C66.4039 14.927 66.4333 14.7168 66.5192 14.4726L67.9369 10.2532L64.3146 7.64839C64.102 7.49915 63.955 7.34539 63.8736 7.18711C63.7922 7.02883 63.7787 6.86603 63.8329 6.6987C63.8872 6.5359 63.9935 6.41379 64.1518 6.33239C64.31 6.25099 64.5203 6.21255 64.7826 6.21707L69.2258 6.24421L70.5757 2.00454C70.6571 1.75581 70.7589 1.56814 70.881 1.44151C71.0076 1.31489 71.1568 1.25157 71.3287 1.25157C71.505 1.25157 71.6543 1.31489 71.7764 1.44151C71.903 1.56814 72.007 1.75581 72.0884 2.00454L73.4383 6.24421L77.8815 6.21707C78.1438 6.21255 78.3541 6.25099 78.5124 6.33239C78.6706 6.41379 78.7769 6.5359 78.8312 6.6987C78.8854 6.86603 78.8719 7.02883 78.7905 7.18711C78.7091 7.34539 78.5621 7.49915 78.3496 7.64839L74.7272 10.2532L76.1449 14.4726C76.2309 14.7168 76.258 14.927 76.2263 15.1034C76.1992 15.2798 76.1155 15.42 75.9753 15.524C75.8351 15.6325 75.6769 15.6687 75.5005 15.6325C75.3241 15.6009 75.1319 15.5104 74.9239 15.3612L71.3287 12.7224L67.7402 15.3612C67.5322 15.5104 67.34 15.6009 67.1636 15.6325C66.9872 15.6687 66.829 15.6325 66.6888 15.524Z" fill="#FFA580"/>
<path d="M87.4676 15.524C87.3274 15.42 87.2415 15.2798 87.2098 15.1034C87.1827 14.927 87.2121 14.7168 87.298 14.4726L88.7157 10.2532L85.0934 7.64839C84.8808 7.49915 84.7338 7.34539 84.6524 7.18711C84.571 7.02883 84.5575 6.86603 84.6117 6.6987C84.666 6.5359 84.7723 6.41379 84.9306 6.33239C85.0888 6.25099 85.2991 6.21255 85.5614 6.21707L90.0046 6.24421L91.3545 2.00454C91.4359 1.75581 91.5377 1.56814 91.6598 1.44151C91.7864 1.31489 91.9356 1.25157 92.1075 1.25157C92.2838 1.25157 92.4331 1.31489 92.5552 1.44151C92.6818 1.56814 92.7858 1.75581 92.8672 2.00454L94.2171 6.24421L98.6603 6.21707C98.9226 6.21255 99.1329 6.25099 99.2912 6.33239C99.4494 6.41379 99.5557 6.5359 99.61 6.6987C99.6643 6.86603 99.6507 7.02883 99.5693 7.18711C99.4879 7.34539 99.3409 7.49915 99.1284 7.64839L95.506 10.2532L96.9237 14.4726C97.0097 14.7168 97.0368 14.927 97.0051 15.1034C96.978 15.2798 96.8943 15.42 96.7542 15.524C96.614 15.6325 96.4557 15.6687 96.2793 15.6325C96.1029 15.6009 95.9107 15.5104 95.7027 15.3612L92.1075 12.7224L88.519 15.3612C88.311 15.5104 88.1188 15.6009 87.9424 15.6325C87.7661 15.6687 87.6078 15.6325 87.4676 15.524Z" fill="#FFA580"/>
</svg>
